<svg width="20" height="24" viewBox="0 0 20 24" fill="none" xmlns="http://www.w3.org/2000/svg">
<path d="M10 23.5L3.09783 15.3276C3.00192 15.2049 2.90701 15.0814 2.8131 14.9571C1.63408 13.3979 0.997152 11.4934 1.00001 9.53571C1.00001 7.13929 1.94822 4.84102 3.63605 3.1465C5.32387 1.45197 7.61305 0.5 10 0.5C12.3869 0.5 14.6761 1.45197 16.364 3.1465C18.0518 4.84102 19 7.13929 19 9.53571C19.0028 11.4925 18.3662 13.3961 17.1877 14.9547L17.1869 14.9571C17.1869 14.9571 16.9414 15.2808 16.9046 15.3243L10 23.5ZM4.11892 13.9673C4.11892 13.9673 4.31037 14.2203 4.35373 14.2745L10 20.9601L15.6536 14.2655C15.6896 14.2203 15.8819 13.9649 15.8819 13.9649C16.845 12.6909 17.3655 11.1351 17.3636 9.53571C17.3636 7.57501 16.5878 5.6946 15.2069 4.30817C13.8259 2.92175 11.953 2.14286 10 2.14286C8.04704 2.14286 6.17408 2.92175 4.79313 4.30817C3.41218 5.6946 2.63637 7.57501 2.63637 9.53571C2.63465 11.1361 3.15492 12.6928 4.11892 13.9673Z" fill="#484848" stroke="#333333" strokeWidth="0.5"/>
</svg>
